<svg id="Capa_1" enable-background="new 0 0 512 512" height="512" viewBox="0 0 512 512" width="512" xmlns="http://www.w3.org/2000/svg"><g><path d="m512 256c0 7.2-.3 14.33-.89 21.37-2.95 35.83-13.3 69.57-29.5 99.7l-215.75 47.5-9.86 2.17-9.86-2.17-215.75-47.5c-16.2-30.13-26.55-63.87-29.5-99.7-.59-7.04-.89-14.17-.89-21.37 0-46.63 12.47-90.34 34.26-128 41.7 72.09 399.22 76.52 443.48 0 21.79 37.66 34.26 81.37 34.26 128z" fill="#a6b8ec"/><path d="m511.11 277.37c-2.95 35.83-13.3 69.57-29.5 99.7l-215.75 47.5h-19.72l-215.75-47.5c-16.2-30.13-26.55-63.87-29.5-99.7z" fill="#8c65d3"/><path d="m511.11 277.37c-2.95 35.83-13.3 69.57-29.5 99.7l-215.75 47.5h-9.86v-147.2z" fill="#5144b0"/><path d="m477.74 128c-44.26 76.52-126.99 128-221.74 128s-177.48-51.48-221.74-128c.01-.02.03-.05.04-.07 44.27-76.48 126.98-127.93 221.7-127.93s177.43 51.45 221.7 127.93c.01.02.03.05.04.07z" fill="#c2d4f2"/><path d="m487.38 365.64c-1.82 3.86-3.75 7.67-5.77 11.43-4.97 9.25-10.5 18.16-16.55 26.68-46.35 65.49-122.71 108.25-209.06 108.25-48.8 0-94.4-13.65-133.2-37.34-29.87-18.24-55.72-42.43-75.86-70.91-6.05-8.52-11.58-17.43-16.55-26.68-2.02-3.76-3.95-7.57-5.77-11.43 8.03-11.53 21.38-19.08 36.5-19.08 16.8 0 31.42 9.32 38.97 23.07 7.56-13.75 22.18-23.07 38.98-23.07s31.42 9.32 38.98 23.07c7.56-13.75 22.17-23.07 38.97-23.07s31.42 9.32 38.98 23.07c7.56-13.75 22.18-23.07 38.98-23.07s31.41 9.32 38.97 23.07c7.56-13.75 22.18-23.07 38.98-23.07s31.42 9.32 38.98 23.07c7.55-13.75 22.17-23.07 38.97-23.07 15.12 0 28.47 7.55 36.5 19.08z" fill="#6ba7ff"/><g><path d="m394.584 426.74h-30v-198.14c0-18.108-14.732-32.841-32.841-32.841s-32.841 14.732-32.841 32.841v48.77h-30v-48.77c0-34.65 28.19-62.841 62.841-62.841s62.841 28.19 62.841 62.841z" fill="#ffa07a"/><path d="m222.128 213.601h157.456v30h-157.456z" fill="#ffc178"/><path d="m222.128 296.678h157.456v30h-157.456z" fill="#ffc178"/><g fill="#ffa07a"><path d="m222.128 311.678h157.456v15h-157.456z"/><path d="m222.128 228.601h157.456v15h-157.456z"/><path d="m313.488 213.601h66.096v30h-66.096z"/><path d="m313.488 296.678h66.096v30h-66.096z"/></g><path d="m237.128 426.74h-30v-198.14c0-18.108-14.732-32.841-32.841-32.841s-32.841 14.732-32.841 32.841v48.77h-30v-48.77c0-34.65 28.19-62.841 62.841-62.841s62.841 28.19 62.841 62.841z" fill="#ffc178"/></g><path d="m465.06 403.75c-46.35 65.49-122.71 108.25-209.06 108.25-48.8 0-94.4-13.65-133.2-37.34-29.87-18.24-55.72-42.43-75.86-70.91 4.45-1.5 9.22-2.31 14.18-2.31 16.8 0 31.42 9.32 38.97 23.07 7.56-13.75 22.18-23.07 38.98-23.07s31.42 9.32 38.98 23.07c7.56-13.75 22.17-23.07 38.97-23.07s31.42 9.32 38.98 23.07c7.56-13.75 22.18-23.07 38.98-23.07s31.41 9.32 38.97 23.07c7.56-13.75 22.18-23.07 38.98-23.07s31.42 9.32 38.98 23.07c7.55-13.75 22.17-23.07 38.97-23.07 4.96 0 9.73.81 14.18 2.31z" fill="#8bb9ff"/><g fill="#fff"><path d="m477.74 215.784h-3.844c-5.322 0-9.637-4.314-9.637-9.637v-3.844h-9.833v3.844c0 5.322-4.314 9.637-9.637 9.637h-3.844v9.833h3.844c5.322 0 9.637 4.314 9.637 9.637v3.844h9.833v-3.844c0-5.322 4.314-9.637 9.637-9.637h3.844z"/><path d="m309.999 126.887h-3.844c-5.322 0-9.637-4.314-9.637-9.637v-3.844h-9.833v3.844c0 5.322-4.314 9.637-9.637 9.637h-3.844v9.833h3.844c5.322 0 9.637 4.314 9.637 9.637v3.844h9.833v-3.844c0-5.322 4.314-9.637 9.637-9.637h3.844z"/><path d="m409.18 62.182h-3.844c-5.322 0-9.637-4.314-9.637-9.637v-3.844h-9.833v3.844c0 5.322-4.314 9.637-9.637 9.637h-3.844v9.833h3.844c5.322 0 9.637 4.314 9.637 9.637v3.844h9.833v-3.844c0-5.322 4.314-9.637 9.637-9.637h3.844z"/><path d="m79.423 223.684h-3.843c-5.322 0-9.637-4.314-9.637-9.637v-3.844h-9.833v3.844c0 5.322-4.314 9.637-9.637 9.637h-3.843v9.833h3.844c5.322 0 9.637 4.314 9.637 9.637v3.844h9.833v-3.844c0-5.322 4.314-9.637 9.637-9.637h3.844v-9.833z"/><path d="m172.503 67.964h-3.844c-5.322 0-9.637-4.314-9.637-9.637v-3.844h-9.833v3.844c0 5.322-4.314 9.637-9.637 9.637h-3.844v9.833h3.844c5.322 0 9.637 4.314 9.637 9.637v3.844h9.833v-3.844c0-5.322 4.314-9.637 9.637-9.637h3.844z"/></g></g></svg>