<svg id="Layer_1" height="512" viewBox="0 0 512 512" width="512" xmlns="http://www.w3.org/2000/svg" data-name="Layer 1"><path d="m77 335.553a84.837 84.837 0 0 1 27.222-4.48c.931 0 1.853.04 2.778.07v-124.143h-30z" fill="#d4e1f4"/><path d="m104.217 349.422a66.658 66.658 0 1 0 66.657 66.658 66.733 66.733 0 0 0 -66.657-66.658zm0 121.315a54.658 54.658 0 1 1 54.657-54.657 54.719 54.719 0 0 1 -54.657 54.657z" fill="#1ae5be"/><path d="m109.725 393h8.162a6 6 0 0 0 0-12h-8.162a34.862 34.862 0 0 0 -32.412 22h-7.293a6 6 0 1 0 0 12h4.755c-.011 1-.028.621-.028 1s.017 1 .028 1h-4.755a6 6 0 1 0 0 12h7.293a34.863 34.863 0 0 0 32.412 22h8.162a6 6 0 0 0 0-12h-8.162a22.963 22.963 0 0 1 -18.84-10h22.044a6 6 0 0 0 0-12h-26.154c-.017 0-.028-.621-.028-1s.011 0 .028-1h26.154a6 6 0 0 0 0-12h-22.045a22.965 22.965 0 0 1 18.841-10z" fill="#1ae5be"/><g fill="#0635c9"><path d="m467 284.146v-47.6a35.558 35.558 0 0 0 -35.3-35.546h-10.7v-91.291a6.11 6.11 0 0 0 -2.494-4.786 5.625 5.625 0 0 0 -5.076-.986l-32.43 9.241v-81.52a27.059 27.059 0 0 0 -27-26.658c-.133 0-.324 0-.457 0l-148.764 2.158a26.715 26.715 0 0 0 -25.63 21.223 26.731 26.731 0 0 0 -21.149 26.091v122.01l-82.273 24.765-.155.249a6.21 6.21 0 0 0 -4.572 5.763v128.741h12v-123h348.73a23.52 23.52 0 0 1 23.27 23.542v47.458h-54.514a35.468 35.468 0 0 0 -35.486 35.25v41.389a35.564 35.564 0 0 0 35.486 35.361h54.514v47.347c0 12.838-10.459 23.653-23.3 23.653h-263.7v12h263.7c19.455 0 35.3-16.2 35.3-35.653v-47.6a35.408 35.408 0 0 0 32-35.1v-41.397a35.408 35.408 0 0 0 -32-35.104zm-309-83.146h-40.815l40.815-11.986zm20 0h-8v-146.528c0-5.908 3-11.043 8-13.354zm149.914 0h-96.814a54.4 54.4 0 0 1 -6.609-26.024 55.017 55.017 0 1 1 103.423 26.024zm20.086 0h-6.788a65.526 65.526 0 0 0 5.31-26.024 67.017 67.017 0 0 0 -134.033 0 65.51 65.51 0 0 0 5.311 26.024h-6.8v-144.795l17.812-18.205h100.7l18.488 18.9zm21 0h-9v-146.537a6.129 6.129 0 0 0 -1.822-4.177l-21.755-22.413a6.2 6.2 0 0 0 -4.371-1.873h-105.781a6.048 6.048 0 0 0 -4.308 1.875l-21.137 21.7a6.19 6.19 0 0 0 -1.826 4.2v147.225h-9v-167.186a14.928 14.928 0 0 1 14.685-14.657l148.858-2.157a15.294 15.294 0 0 1 10.8 4.216 14.847 14.847 0 0 1 4.657 10.442zm40 0h-28v-75.35l28-8zm78 159.717a23.283 23.283 0 0 1 -23.283 23.283h-63.434a23.283 23.283 0 0 1 -23.283-23.283v-41.434a23.283 23.283 0 0 1 23.283-23.283h63.434a23.283 23.283 0 0 1 23.283 23.283z"/><path d="m421.345 319h-5.651c-11.382 0-20.641 9.618-20.641 21s9.259 21 20.641 21h5.651c11.381 0 20.64-9.618 20.64-21s-9.259-21-20.64-21zm0 30h-5.651a9.007 9.007 0 0 1 0-18h5.651a9.007 9.007 0 0 1 0 18z"/><path d="m279.506 42.4a27.062 27.062 0 1 0 27.062 27.062 27.094 27.094 0 0 0 -27.062-27.062zm0 42.124a15.062 15.062 0 1 1 15.062-15.062 15.08 15.08 0 0 1 -15.062 15.065z"/><path d="m100.577 233h-2.985a6 6 0 1 0 0 12h2.985a6 6 0 0 0 0-12z"/><path d="m212.555 239a6 6 0 0 0 -6-6h-86.668a6 6 0 0 0 0 12h86.668a6 6 0 0 0 6-6z"/><path d="m293 149.753v-8.294a6 6 0 0 0 -12 0v5.756c-1-.012-.621-.029-1-.029s-1 .017-1 .029v-5.756a6 6 0 0 0 -12 0v8.294a34.86 34.86 0 0 0 -22 32.411v7.162a6 6 0 1 0 12 0v-7.162a22.967 22.967 0 0 1 10-18.841v21.045a6 6 0 0 0 12 0v-25.153c0-.019.621-.029 1-.029s0 .01 1 .029v25.153a6 6 0 0 0 12 0v-21.045a22.967 22.967 0 0 1 10 18.841v7.162a6 6 0 1 0 12 0v-7.162a34.86 34.86 0 0 0 -22-32.411z"/></g><path d="m104.217 324.58a91.5 91.5 0 1 0 91.5 91.5 91.6 91.6 0 0 0 -91.5-91.5zm76.1 97.42h3.077a80.274 80.274 0 0 1 -18.971 45.757l-2.151-2.131a6.005 6.005 0 0 0 -8.485 8.5l2.042 2.153a77.735 77.735 0 0 1 -45.829 18.974v-3.076a6 6 0 0 0 -12 0v3.076a79.832 79.832 0 0 1 -45.609-18.971l2.2-2.151a5.985 5.985 0 1 0 -8.444-8.485l-2.144 2.112a80.266 80.266 0 0 1 -18.96-45.758h3.076a6 6 0 1 0 0-12h-3.076a80.029 80.029 0 0 1 18.972-45.678l2.151 2.172a5.993 5.993 0 1 0 8.484-8.468l-2.259-2.15a79.83 79.83 0 0 1 45.609-18.97v3.076a6 6 0 0 0 12 0v-3.076a77.732 77.732 0 0 1 45.825 18.971l-2.1 2.151a6.017 6.017 0 0 0 8.532 8.486l2.155-2.191a80.042 80.042 0 0 1 18.978 45.677h-3.077a6 6 0 0 0 0 12z" fill="#1ae5be"/></svg>