<?xml version="1.0" encoding="UTF-8"?>
<svg xmlns="http://www.w3.org/2000/svg" xmlns:xlink="http://www.w3.org/1999/xlink" xmlns:svgjs="http://svgjs.com/svgjs" version="1.1" width="512" height="512" x="0" y="0" viewBox="0 0 64 64" style="enable-background:new 0 0 512 512" xml:space="preserve" class="">
  <g>
    <linearGradient xmlns="http://www.w3.org/2000/svg" id="New_Gradient_Swatch_3" gradientUnits="userSpaceOnUse" x1="18.858" x2="18.858" y1="67.074" y2="2.034">
      <stop stop-opacity="1" stop-color="#0256ba" offset="0"/>
      <stop stop-opacity="1" stop-color="#004aa2" offset="0.5868725868725869"/>
      <stop stop-opacity="1" stop-color="#8bffbe" offset="0.9961389961389961"/>
    </linearGradient>
    <linearGradient xmlns="http://www.w3.org/2000/svg" xmlns:xlink="http://www.w3.org/1999/xlink" id="New_Gradient_Swatch_3-2" x1="27.99" x2="27.99" xlink:href="#New_Gradient_Swatch_3" y1="67.074" y2="2.034"/>
    <linearGradient xmlns="http://www.w3.org/2000/svg" xmlns:xlink="http://www.w3.org/1999/xlink" id="New_Gradient_Swatch_3-3" x1="35" x2="35" xlink:href="#New_Gradient_Swatch_3" y1="67.074" y2="2.034"/>
    <linearGradient xmlns="http://www.w3.org/2000/svg" xmlns:xlink="http://www.w3.org/1999/xlink" id="New_Gradient_Swatch_3-4" x1="42.01" x2="42.01" xlink:href="#New_Gradient_Swatch_3" y1="67.074" y2="2.034"/>
    <linearGradient xmlns="http://www.w3.org/2000/svg" xmlns:xlink="http://www.w3.org/1999/xlink" id="New_Gradient_Swatch_3-5" x1="31.918" x2="31.918" xlink:href="#New_Gradient_Swatch_3" y1="67.074" y2="2.034"/>
    <g xmlns="http://www.w3.org/2000/svg" id="sign_·_ecommerce_·_shopping_·_tag_·_sale" data-name="sign · ecommerce · shopping · tag · sale">
      <path d="m23.1 43.728a3 3 0 0 0 -4.243 0l-1.414 1.414a1 1 0 0 1 -1.415 0l-1.414-1.414a1 1 0 0 1 0-1.415l2.828-2.828a1 1 0 0 0 -1.414-1.414l-2.828 2.829a3 3 0 0 0 0 4.243l1.414 1.414a3 3 0 0 0 4.243 0l1.414-1.414a1 1 0 0 1 1.415 0l1.414 1.413a1 1 0 0 1 0 1.415l-2.828 2.829a1 1 0 1 0 1.414 1.414l2.829-2.828a3 3 0 0 0 0-4.243z" fill="url(#New_Gradient_Swatch_3)" data-original="url(#New_Gradient_Swatch_3)" style=""/>
      <path d="m34.515 37.628-10.607-6.364a1 1 0 0 0 -1.221.15l-1.415 1.415a1 1 0 0 0 -.15 1.221l6.364 10.607a1 1 0 1 0 1.715-1.03l-1.72-2.866 3.138-3.138 2.866 1.72a1 1 0 0 0 1.03-1.715zm-8.095 1.366-3.182-5.3.31-.31 5.3 3.182z" fill="url(#New_Gradient_Swatch_3-2)" data-original="url(#New_Gradient_Swatch_3-2)" style=""/>
      <path d="m40.657 30.414-3.536 3.536-7.778-7.778a1 1 0 1 0 -1.414 1.414l8.485 8.485a1 1 0 0 0 1.414 0l4.243-4.243a1 1 0 0 0 -1.414-1.414z" fill="url(#New_Gradient_Swatch_3-3)" data-original="url(#New_Gradient_Swatch_3-3)" style=""/>
      <path d="m47.314 23.757-2.829 2.829-2.828-2.829 1.414-1.414a1 1 0 0 0 -1.414-1.414l-1.414 1.414-2.829-2.828 2.829-2.829a1 1 0 1 0 -1.414-1.414l-3.536 3.536a1 1 0 0 0 0 1.414l8.485 8.485a1 1 0 0 0 1.414 0l3.536-3.536a1 1 0 1 0 -1.414-1.414z" fill="url(#New_Gradient_Swatch_3-4)" data-original="url(#New_Gradient_Swatch_3-4)" style=""/>
      <path d="m58.261 17.63 1.112-7.23a5 5 0 0 0 -5.679-5.7l-15.4 2.3a9.054 9.054 0 0 0 -5.036 2.538l-29.958 29.947a5 5 0 0 0 0 7.071l14.144 14.144a5 5 0 0 0 7.071 0l16.4-16.4c1.715 8.383 5.573 13.7 10.085 13.7 6.168 0 11-10.1 11-23 0-6.748-1.365-13.041-3.739-17.37zm-35.161 41.654a3.071 3.071 0 0 1 -4.243 0l-14.141-14.142a3 3 0 0 1 0-4.243l29.953-29.953a7.048 7.048 0 0 1 3.917-1.973l15.4-2.3a3.023 3.023 0 0 1 .453-.034 3 3 0 0 1 2.961 3.461l-.775 5.042a10.3 10.3 0 0 0 -1.947-1.859 3.971 3.971 0 0 0 -1.168-2.787 4.1 4.1 0 0 0 -5.657 0 4 4 0 1 0 6.247 4.882 11.167 11.167 0 0 1 2.085 2.629l-1.142 7.424a6.955 6.955 0 0 1 -1.97 3.885zm27.9-45.284a3.8 3.8 0 0 1 1.421.286 2.028 2.028 0 0 1 -.329.451 2.026 2.026 0 1 1 .22-2.561 5.621 5.621 0 0 0 -1.312-.176 1 1 0 0 0 0 2zm0 42c-3.614 0-7.017-5.5-8.365-13.422l11.847-11.848a8.934 8.934 0 0 0 2.532-5l.7-4.523a39.263 39.263 0 0 1 2.286 13.793c0 11.383-4.122 21-9 21z" fill="url(#New_Gradient_Swatch_3-5)" data-original="url(#New_Gradient_Swatch_3-5)" style=""/>
    </g>
  </g>
</svg>
